<mxfile host="app.diagrams.net" agent="Mozilla/5.0 (Windows NT 10.0; Win64; x64) AppleWebKit/537.36 (KHTML, like Gecko) Chrome/131.0.0.0 Safari/537.36" version="26.0.4">
  <diagram name="Страница — 1" id="Ojy6zlbdxTmZOhlRn1pK">
    <mxGraphModel dx="794" dy="1114" grid="1" gridSize="10" guides="1" tooltips="1" connect="1" arrows="1" fold="1" page="1" pageScale="1" pageWidth="827" pageHeight="1169" math="0" shadow="0">
      <root>
        <mxCell id="0" />
        <mxCell id="1" parent="0" />
        <mxCell id="EwVVaY0tGmsgBZr4FCaH-1" value="poetry" style="ellipse;whiteSpace=wrap;html=1;aspect=fixed;" vertex="1" parent="1">
          <mxGeometry x="370" y="530" width="80" height="80" as="geometry" />
        </mxCell>
        <mxCell id="EwVVaY0tGmsgBZr4FCaH-2" value="инструмент для управления зависимостями и упаковки проектов, который значительно упрощает настройку виртуальных окружений и работы с зависимостями." style="rounded=1;whiteSpace=wrap;html=1;" vertex="1" parent="1">
          <mxGeometry x="287" y="340" width="246" height="90" as="geometry" />
        </mxCell>
        <mxCell id="EwVVaY0tGmsgBZr4FCaH-3" value="" style="endArrow=none;dashed=1;html=1;rounded=0;" edge="1" parent="1" source="EwVVaY0tGmsgBZr4FCaH-1" target="EwVVaY0tGmsgBZr4FCaH-2">
          <mxGeometry width="50" height="50" relative="1" as="geometry">
            <mxPoint x="380" y="590" as="sourcePoint" />
            <mxPoint x="430" y="540" as="targetPoint" />
          </mxGeometry>
        </mxCell>
      </root>
    </mxGraphModel>
  </diagram>
</mxfile>
